<?xml version="1.0" encoding="UTF-8" standalone="no"?>
<!-- Created with Inkscape (http://www.inkscape.org/) -->
<svg id="svg3420" xmlns:rdf="http://www.w3.org/1999/02/22-rdf-syntax-ns#" xmlns="http://www.w3.org/2000/svg" height="297mm" width="210mm" version="1.1" xmlns:cc="http://creativecommons.org/ns#" xmlns:dc="http://purl.org/dc/elements/1.1/" viewBox="0 0 744.09448819 1052.3622047">
 <metadata id="metadata3425">
  <rdf:RDF>
   <cc:Work rdf:about="">
    <dc:format>image/svg+xml</dc:format>
    <dc:type rdf:resource="http://purl.org/dc/dcmitype/StillImage"/>
    <dc:title/>
   </cc:Work>
  </rdf:RDF>
 </metadata>
 <g id="layer1">
  <g id="g3973" transform="matrix(1.6297 0 0 1.6297 -46.06 164.91)">
   <g>
    <path id="path3438" d="m189.77 131.35c4.47-56.445-4.72-105.73-27.3-146.48-15.74-28.406-35.06-47.039-50.68-58.661-15.63-11.622-27.562-16.233-28.529-16.597-19.484-6.949-19.557 16.153-23.183 30.344-3.553 14.098-7.185 33.938-7.782 57.578-1.129 44.646 8.528 111.6 60.934 177.02z" fill="#b2a393"/>
    <path id="path3446" d="m165.13 425.01c-0.0107 3.43-0.0701 6.689-0.17001 9.514l-0.0124 0.675c0 47.041 19.169 70.799 35.25 82.445 18.668 13.52 40.078 16.358 54.75 16.358s36.082-2.838 54.75-16.358c16.08-11.647 35.25-35.405 35.25-82.445l-0.0124-0.675c-0.099-2.824-0.15929-6.083-0.17002-9.513-29.347-16.264-60.167-22.005-89.819-22.005-29.649 0-60.469 5.74-89.816 22.004z" fill="#ffe5b5"/>
    <path id="path3796" d="m322.31 131.35c-4.4634-56.442 4.7215-105.72 27.3-146.47 15.742-28.409 35.062-47.042 50.688-58.665 15.626-11.622 27.559-16.233 28.526-16.596 19.483-6.9499 19.556 16.152 23.183 30.343 3.5531 14.098 7.1844 33.938 7.7816 57.578 1.1288 44.646-8.5275 111.6-60.938 177.02z" fill="#a08e7d"/>
    <path id="path3448" d="m373.97 125.76c-25.39-28.297-65.08-42.644-117.97-42.644-52.885 0-92.575 14.347-117.97 42.644-25.746 28.689-35.843 70.5-30.011 124.27 4.196 38.688 13.335 61.724 23.917 88.396 4.113 10.367 8.366 21.088 12.684 33.642 1.928 5.605 20.749 42.149 20.708 53.809 35.559-16.264 67.568-22.585 90.33-22.585 35.928 0 51.091 4.3642 86.65 20.628-0.042-11.66 23.142-46.247 25.07-51.852 4.319-12.556 8.572-23.276 12.684-33.642 10.582-26.672 19.722-49.707 23.917-88.396 5.831-53.771-4.267-95.581-30.012-124.27z" fill="#d3c3b6"/>
    <path id="path3450" d="m254.95 534c14.673 0 36.082-2.838 54.751-16.358 16.08-11.64 35.25-35.4 35.25-82.44l-0.0124-0.675c-0.099-2.824-0.15928-6.082-0.17001-9.513-29.347-16.264-60.167-22.005-89.819-22.005l0.00083 131z" fill="#ffd5b3"/>
    <path id="path3452" d="m373.97 125.76c-25.39-28.297-65.08-42.644-117.97-42.644l-1.0333 320.41c35.928 1.6087 54.197 5.6295 89.756 21.894-0.042-11.66 20.729-47.744 22.657-53.349 4.319-12.556 8.572-23.276 12.684-33.642 10.582-26.672 19.722-49.707 23.917-88.396 5.831-53.771-4.267-95.581-30.012-124.27z" fill="#b2a393"/>
   </g>
   <g id="g3454">
    <path id="path3456" fill="#333" d="m143.27 266.44c0-13.706 9.229-24.805 20.569-24.805 11.355 0 20.583 11.1 20.583 24.805 0 13.704-9.228 24.813-20.583 24.813-11.34-0.001-20.569-11.11-20.569-24.813z"/>
    <path id="path3458" fill="#333" d="m368.73 266.44c0-13.807-9.288-24.999-20.725-24.999-11.45 0-20.739 11.192-20.739 24.999s9.288 24.999 20.739 24.999c11.437-0.001 20.725-11.193 20.725-24.999z"/>
    <path id="path3460" d="m196.7 456.23c-3.7074-13.836 0.98489-27.103 10.441-29.636 9.468-2.5369 20.165 6.6061 23.872 20.442 3.7066 13.833-0.98131 27.112-10.45 29.649-9.4567 2.5329-20.157-6.6217-23.863-20.455z" fill="#b2a393"/>
    <path id="path3462" d="m315.3 456.26c3.7346-13.938-0.98289-27.311-10.519-29.866-9.5482-2.5584-20.32 6.6644-24.055 20.602-3.7346 13.938 0.98289 27.311 10.531 29.869 9.5354 2.556 20.307-6.6664 24.042-20.606z" fill="#9d8374"/>
   </g>
  </g>
 </g>
</svg>
